<?xml version="1.0" standalone="no"?>
<!DOCTYPE svg PUBLIC "-//W3C//DTD SVG 20010904//EN"
 "http://www.w3.org/TR/2001/REC-SVG-20010904/DTD/svg10.dtd">
<svg version="1.0" xmlns="http://www.w3.org/2000/svg"
 width="300.000000pt" height="132.000000pt" viewBox="0 0 300.000000 132.000000"
 preserveAspectRatio="xMidYMid meet">
<metadata>
Created by potrace 1.10, written by Peter Selinger 2001-2011
</metadata>
<g transform="translate(0.000000,132.000000) scale(0.100000,-0.100000)"
fill="#000000" stroke="none">
<path d="M1577 1055 c-49 -17 -103 -59 -130 -101 -22 -34 -23 -34 -74 -28 -44
5 -58 2 -103 -22 -58 -32 -120 -95 -120 -123 0 -23 46 -70 77 -77 22 -6 23
-11 23 -86 0 -79 20 -145 40 -133 5 3 2 -13 -6 -37 -17 -47 -13 -102 12 -149
l15 -29 -631 0 c-413 0 -630 -3 -630 -10 0 -13 1239 -14 1259 -1 13 8 12 15
-3 49 -35 77 -16 162 58 261 29 39 32 51 12 51 -15 0 -53 -46 -79 -95 l-15
-30 -11 28 c-6 16 -11 61 -11 102 l0 74 -42 23 c-72 39 -65 89 21 147 70 48
100 57 143 42 32 -11 34 -10 82 44 51 59 108 95 151 95 28 0 30 -7 13 -45 -8
-18 -33 -36 -77 -56 -79 -36 -111 -64 -111 -98 0 -42 27 -82 101 -150 90 -82
111 -123 117 -228 4 -73 2 -83 -17 -99 -28 -24 -28 -75 0 -100 20 -18 48 -19
665 -22 449 -2 644 0 644 7 0 8 -192 11 -628 11 -618 0 -629 0 -650 20 -39 36
-24 88 20 71 36 -14 44 -42 18 -63 -16 -13 -18 -18 -7 -18 46 0 45 70 -1 89
-28 12 -28 14 -28 89 1 107 -30 169 -129 258 -74 67 -103 114 -91 152 6 17
101 82 121 82 5 0 -11 -20 -35 -45 -24 -25 -52 -45 -62 -45 -10 0 -18 -7 -18
-15 0 -16 16 -20 24 -6 3 4 30 11 59 14 30 3 73 15 96 26 76 39 92 101 25 101
-31 0 -34 2 -24 19 26 50 -3 77 -63 56z m113 -103 c0 -34 -63 -74 -135 -86
l-40 -7 55 55 c44 46 61 56 87 56 25 0 33 -4 33 -18z m-327 -364 c-5 -7 -19
-30 -32 -50 -23 -38 -31 -45 -31 -30 0 11 58 92 66 92 3 0 1 -6 -3 -12z m279
-253 c-3 -16 2 -33 14 -47 14 -16 15 -20 4 -16 -19 6 -35 50 -27 72 10 24 15
19 9 -9z"/>
</g>
</svg>
